<svg id="visual" viewBox="0 0 900 600" width="900" height="600" xmlns="http://www.w3.org/2000/svg" xmlns:xlink="http://www.w3.org/1999/xlink" version="1.1"><rect x="0" y="0" width="900" height="600" fill="#001220"></rect><defs><linearGradient id="grad1_0" x1="33.3%" y1="100%" x2="100%" y2="0%"><stop offset="20%" stop-color="#0b0c10" stop-opacity="1"></stop><stop offset="80%" stop-color="#0b0c10" stop-opacity="1"></stop></linearGradient></defs><defs><linearGradient id="grad1_1" x1="33.3%" y1="100%" x2="100%" y2="0%"><stop offset="20%" stop-color="#0b0c10" stop-opacity="1"></stop><stop offset="80%" stop-color="#001220" stop-opacity="1"></stop></linearGradient></defs><defs><linearGradient id="grad2_0" x1="0%" y1="100%" x2="66.7%" y2="0%"><stop offset="20%" stop-color="#0b0c10" stop-opacity="1"></stop><stop offset="80%" stop-color="#0b0c10" stop-opacity="1"></stop></linearGradient></defs><defs><linearGradient id="grad2_1" x1="0%" y1="100%" x2="66.7%" y2="0%"><stop offset="20%" stop-color="#001220" stop-opacity="1"></stop><stop offset="80%" stop-color="#0b0c10" stop-opacity="1"></stop></linearGradient></defs><g transform="translate(900, 600)"><path d="M-378.6 0C-354.4 -44.1 -330.3 -88.1 -308.6 -127.8C-286.9 -167.5 -267.7 -202.8 -242.5 -242.5C-217.4 -282.3 -186.3 -326.4 -144.9 -349.8C-103.5 -373.2 -51.7 -375.9 0 -378.6L0 0Z" fill="#080f19"></path><path d="M-189.3 0C-177.2 -22 -165.1 -44.1 -154.3 -63.9C-143.4 -83.8 -133.8 -101.4 -121.3 -121.3C-108.7 -141.1 -93.1 -163.2 -72.4 -174.9C-51.7 -186.6 -25.9 -187.9 0 -189.3L0 0Z" fill="#0b0c10"></path></g><g transform="translate(0, 0)"><path d="M378.6 0C372.6 48.6 366.6 97.3 349.8 144.9C333 192.5 305.3 239.1 266.6 266.6C227.8 294 177.9 302.3 131.6 317.8C85.4 333.3 42.7 355.9 0 378.6L0 0Z" fill="#080f19"></path><path d="M189.3 0C186.3 24.3 183.3 48.6 174.9 72.4C166.5 96.3 152.7 119.6 133.3 133.3C113.9 147 89 151.2 65.8 158.9C42.7 166.6 21.3 178 0 189.3L0 0Z" fill="#0b0c10"></path></g></svg>